<svg width="24" height="23" viewBox="0 0 24 23" fill="none" xmlns="http://www.w3.org/2000/svg">
<path d="M18.4246 21.5861H1.02206V4.8663H10.7842V3.8623H0.0180664V22.5901H19.4285V12.1687H18.4246V21.5861Z" fill="black"/>
<path d="M22.0657 1.43924L21.5771 0.953979C20.9658 0.343135 20.137 0 19.2729 0C18.4088 0 17.58 0.343135 16.9687 0.953979L8.53857 9.38415V14.4777H13.6355L22.0657 6.04756C22.6757 5.43589 23.0183 4.60727 23.0183 3.7434C23.0183 2.87953 22.6757 2.05091 22.0657 1.43924ZM13.2205 13.4871H9.53922V9.80583L16.7144 2.6273L20.3957 6.30859L13.2205 13.4871ZM21.3562 5.33807L21.1018 5.59242L17.4205 1.91112L17.6749 1.65677C18.0977 1.23497 18.6706 0.998085 19.2679 0.998085C19.8652 0.998085 20.438 1.23497 20.8609 1.65677L21.3495 2.14538C21.5598 2.35445 21.7268 2.60293 21.841 2.87661C21.9552 3.15029 22.0143 3.4438 22.0149 3.74034C22.0155 4.03688 21.9576 4.33063 21.8446 4.60479C21.7316 4.87895 21.5656 5.12813 21.3562 5.33807Z" fill="black"/>
</svg>
